<svg width="96" height="96" xmlns="http://www.w3.org/2000/svg" xmlns:xlink="http://www.w3.org/1999/xlink" xml:space="preserve" overflow="hidden"><defs><clipPath id="clip0"><rect x="0" y="0" width="96" height="96"/></clipPath></defs><g clip-path="url(#clip0)"><path d="M13.448 45.865C10.8688 50.1187 8.83893 54.682 7.407 59.446 10.8444 63.347 14.7896 66.7691 19.137 69.621 18.3618 65.8821 18.6656 61.9998 20.013 58.427 20.274 57.794 20.567 57.182 20.883 56.586 20.1148 56.0525 19.3831 55.4682 18.693 54.837 16.1711 52.3713 14.3594 49.2722 13.448 45.865Z" fill="#000000" fill-rule="nonzero" fill-opacity="1"/><path d="M69.766 33C70.443 33.123 71.119 33.277 71.791 33.469 75.4378 34.6333 78.6776 36.8123 81.131 39.751 81.6767 34.5796 81.526 29.3583 80.683 24.227 75.9433 22.2576 70.9648 20.9212 65.876 20.252 68.0924 23.204 69.4447 26.714 69.782 30.39 69.8308 31.2595 69.8254 32.1312 69.766 33Z" fill="#000000" fill-rule="nonzero" fill-opacity="1"/><path d="M82.462 45.72C81.5148 49.2394 79.6164 52.4298 76.975 54.941 76.3234 55.5164 75.6368 56.0507 74.919 56.541 75.243 57.149 75.542 57.775 75.809 58.422 77.169 62.0366 77.4657 65.9651 76.664 69.743 81.0914 66.8697 85.105 63.4043 88.593 59.443 87.1465 54.6246 85.0859 50.0124 82.462 45.72Z" fill="#000000" fill-rule="nonzero" fill-opacity="1"/><path d="M49.667 24.182C52.4189 27.2641 54.1734 31.1069 54.7 35.205 54.74 35.505 54.768 35.8 54.794 36.098 55.039 35.938 55.269 35.761 55.522 35.61 59.0609 33.4785 63.1619 32.4675 67.286 32.71 67.329 31.9886 67.329 31.2654 67.286 30.544 67.047 26.715 65.118 23.144 62.551 20.024 62.357 20.024 62.163 20.01 61.97 20.01 58.2295 19.8517 54.5296 20.8367 51.363 22.834 50.7719 23.25 50.2057 23.7001 49.667 24.182Z" fill="#000000" fill-rule="nonzero" fill-opacity="1"/><path d="M32.656 46.694C32.356 46.414 32.072 46.126 31.791 45.827 29.0836 42.9581 27.2627 39.3682 26.547 35.489 25.995 35.594 25.447 35.715 24.895 35.872 21.063 36.966 17.895 39.782 15.344 43.122 15.9792 46.8543 17.7439 50.302 20.4 53 20.969 53.5212 21.5702 54.0062 22.2 54.452 24.5692 51.0547 27.9136 48.4562 31.791 47 32.078 46.888 32.367 46.79 32.656 46.694Z" fill="#000000" fill-rule="nonzero" fill-opacity="1"/><path d="M56.991 76.3C57.291 75.781 57.549 75.251 57.791 74.714 54.0598 73.1954 50.8596 70.6098 48.591 67.281 48.391 66.985 48.1963 66.685 48.007 66.381 47.8203 66.6863 47.6257 66.9863 47.423 67.281 45.1239 70.6582 41.8669 73.2702 38.071 74.781 38.304 75.296 38.554 75.806 38.837 76.304 40.769 79.704 44.156 82.099 47.912 83.782 51.667 82.091 55.06 79.7 56.991 76.3Z" fill="#000000" fill-rule="nonzero" fill-opacity="1"/><path d="M33.147 73.553C33.716 73.465 34.274 73.345 34.825 73.207 33.6517 69.2909 33.6778 65.1132 34.9 61.212 35.007 60.864 35.15 60.533 35.274 60.193 34.91 60.237 34.543 60.273 34.174 60.298 33.684 60.332 33.193 60.348 32.707 60.348 29.3265 60.351 25.9982 59.5143 23.021 57.913 22.773 58.391 22.535 58.876 22.321 59.381 20.811 63.038 21.034 67.234 22.048 71.273 25.594 73.056 29.424 74.129 33.147 73.553Z" fill="#000000" fill-rule="nonzero" fill-opacity="1"/><path d="M36.656 77.531C36.2964 76.8963 35.97 76.2435 35.678 75.575 34.9695 75.7613 34.2519 75.9111 33.528 76.024 32.7139 76.1485 31.8915 76.2107 31.068 76.21 28.2982 76.1602 25.5646 75.5713 23.02 74.476 24.7561 79.17 27.0864 83.6222 29.954 87.724 34.9837 87.4576 39.958 86.5437 44.754 85.005 41.4083 83.3207 38.6026 80.7312 36.656 77.531Z" fill="#000000" fill-rule="nonzero" fill-opacity="1"/><path d="M62.472 76.024C61.6935 75.9009 60.9226 75.734 60.163 75.524 59.8654 76.2102 59.5316 76.8801 59.163 77.531 57.2163 80.7325 54.4098 83.3232 51.063 85.008 55.8588 86.547 60.8333 87.4602 65.863 87.725 68.7104 83.646 71.0289 79.2224 72.763 74.56 70.2804 75.6033 67.6215 76.1633 64.929 76.21 64.1065 76.2111 63.285 76.1489 62.472 76.024Z" fill="#000000" fill-rule="nonzero" fill-opacity="1"/><path d="M73.6 54.424C74.1924 54.0103 74.7601 53.5622 75.3 53.082 78.112 50.556 79.708 46.897 80.57 43.013 78.036 39.721 74.892 36.954 71.101 35.872 70.553 35.716 70.001 35.595 69.449 35.49 68.7329 39.3688 66.9119 42.9582 64.205 45.827 63.905 46.142 63.605 46.445 63.29 46.74 63.536 46.823 63.782 46.905 64.026 46.997 67.8936 48.4499 71.2312 51.039 73.6 54.424Z" fill="#000000" fill-rule="nonzero" fill-opacity="1"/><path d="M72.776 57.855C69.8322 59.4155 66.5508 60.2307 63.219 60.229 62.619 60.229 62.0167 60.2033 61.412 60.152 61.106 60.126 60.802 60.089 60.498 60.052 60.643 60.438 60.798 60.817 60.926 61.214 62.1422 65.1035 62.1701 69.2675 61.006 73.173 61.6149 73.331 62.2313 73.4581 62.853 73.554 63.538 73.6589 64.23 73.711 64.923 73.71 67.9997 73.617 71.0144 72.8221 73.737 71.386 74.777 67.31 75.021 63.07 73.498 59.386 73.281 58.856 73.036 58.351 72.776 57.855Z" fill="#000000" fill-rule="nonzero" fill-opacity="1"/><path d="M28.717 32.712C32.841 32.4705 36.9417 33.4814 40.481 35.612 40.711 35.749 40.919 35.912 41.142 36.055 41.18 35.615 41.227 35.175 41.292 34.735 41.8616 30.8319 43.5465 27.1764 46.144 24.208 45.719 23.839 45.281 23.483 44.818 23.15 41.618 20.85 37.499 20.101 33.346 20.157 30.831 23.246 28.946 26.772 28.714 30.548 28.6726 31.2688 28.6736 31.9914 28.717 32.712Z" fill="#000000" fill-rule="nonzero" fill-opacity="1"/><path d="M47.9 22.414C48.5443 21.8288 49.2243 21.2841 49.936 20.783 53.0247 18.7669 56.6128 17.6487 60.3 17.553 56.619 13.9812 52.4834 10.9101 48 8.419 43.4579 10.9411 39.2741 14.0602 35.56 17.693 39.385 17.7942 43.1022 18.9821 46.277 21.118 46.845 21.526 47.385 21.96 47.9 22.414Z" fill="#000000" fill-rule="nonzero" fill-opacity="1"/><path d="M24.209 33.468C24.881 33.276 25.557 33.122 26.234 32.999 26.1746 32.1305 26.1693 31.2592 26.218 30.39 26.5487 26.7559 27.875 23.2833 30.051 20.354 25.0546 20.9615 20.1571 22.2091 15.479 24.066 14.5388 29.2609 14.3131 34.56 14.808 39.816 17.2715 36.8461 20.5337 34.6433 24.209 33.468Z" fill="#000000" fill-rule="nonzero" fill-opacity="1"/><path d="M48.022 60C48.9218 59.9965 49.8168 59.8675 50.681 59.617 50.3883 61.0199 49.9551 62.3898 49.388 63.706 49.7592 64.4523 50.1794 65.1733 50.646 65.864 52.6213 68.7602 55.3993 71.0165 58.639 72.356 59.6297 68.955 59.595 65.3373 58.539 61.956 58.2655 61.1 57.9313 60.2645 57.539 59.456 56.2603 59.1001 55.0173 58.6264 53.826 58.041 55.2286 56.9879 56.3202 55.575 56.985 53.952 57.8461 54.9911 58.6069 56.1094 59.257 57.292 60.036 57.465 60.8253 57.5883 61.62 57.661 65.0142 57.9543 68.422 57.2803 71.449 55.717 69.3735 52.8127 66.4818 50.5907 63.141 49.333 62.4218 49.0654 61.6871 48.8413 60.941 48.662 59.9147 49.3825 58.8272 50.0116 57.691 50.542 57.691 50.458 57.704 50.376 57.704 50.291 57.7056 48.6572 57.2927 47.0498 56.504 45.619 57.7879 45.6198 59.069 45.7363 60.332 45.967 61.06 45.4003 61.7455 44.781 62.383 44.114 64.7219 41.6338 66.3087 38.5405 66.959 35.194 66.668 35.179 66.377 35.163 66.086 35.163 62.8115 35.1682 59.6002 36.0642 56.796 37.755 56.1167 38.1667 55.464 38.6209 54.842 39.115 54.772 40.3933 54.5873 41.6628 54.29 42.908 52.9826 41.792 51.4013 41.0446 49.709 40.743 50.5065 39.7292 51.3937 38.7894 52.36 37.935 52.3619 37.1327 52.3132 36.3311 52.214 35.535 51.7573 31.9945 50.2585 28.6697 47.908 25.983 45.6908 28.5696 44.2524 31.7319 43.76 35.103 43.631 36.0283 43.5708 36.9618 43.58 37.896 44.5647 38.7623 45.4685 39.7166 46.28 40.747 44.5786 41.0517 42.99 41.8073 41.68 42.935 41.3676 41.6675 41.1717 40.3741 41.095 39.071 40.4893 38.595 39.8547 38.1568 39.195 37.759 36.1376 35.9178 32.6018 35.0271 29.037 35.2 29.6887 38.5435 31.2751 41.6336 33.612 44.112 34.2392 44.7687 34.9129 45.3793 35.628 45.939 36.9036 45.7146 38.1969 45.6065 39.492 45.616 38.7027 47.0469 38.2898 48.6548 38.292 50.289 38.292 50.372 38.302 50.453 38.304 50.536 37.1545 50.0008 36.0545 49.365 35.017 48.636 34.2231 48.8188 33.4418 49.0526 32.678 49.336 29.3148 50.6006 26.4071 52.8428 24.329 55.774 27.3003 57.3389 30.6504 58.0407 34 57.8 34.8353 57.7359 35.6654 57.6167 36.485 57.443 37.1832 56.15 38.0126 54.9323 38.96 53.809 39.2885 54.6478 39.7317 55.437 40.277 56.154L40.325 56.218C40.873 56.9244 41.5149 57.5525 42.233 58.085 40.944 58.7334 39.5928 59.25 38.2 59.627 37.8454 60.3812 37.5407 61.1578 37.288 61.952 36.2214 65.3568 36.1908 69.0018 37.2 72.424 40.5078 71.0932 43.3455 68.8096 45.353 65.863 45.8196 65.1723 46.2398 64.4513 46.611 63.705 46.044 62.3888 45.6109 61.0189 45.318 59.616 46.1825 59.8671 47.0778 59.9963 47.978 60Z" fill="#000000" fill-rule="nonzero" fill-opacity="1"/></g></svg>